<svg width="1210" height="303" viewBox="0 0 1210 303" fill="none" xmlns="http://www.w3.org/2000/svg">
<path d="M1166.72 221.269H1137.32L1095.22 121.877H1110.12L1152.02 221.07H1152.22L1194.52 121.877H1209.22L1166.72 221.269Z" fill="white"/>
<path d="M1069.02 99.0212C1063.66 99.0212 1059.29 94.8468 1059.29 89.2809C1059.29 83.715 1063.66 79.5405 1069.02 79.5405C1074.39 79.5405 1078.56 83.9137 1078.56 89.2809C1078.56 94.648 1074.59 99.0212 1069.02 99.0212ZM1062.27 221.272V122.08H1076.17V221.272H1062.27Z" fill="white"/>
<path d="M997.411 105.782C997.411 119.299 1003.37 121.883 1019.06 121.883H1042.69V134.605H997.61V187.481C997.61 198.414 1001.78 207.956 1014.29 207.956H1042.69V221.274H1012.11C993.638 221.274 983.906 208.751 983.906 188.873V134.605H962.854V121.883H1006.94C989.666 121.883 983.708 115.323 983.708 102.999V82.1267H997.411V105.782Z" fill="white"/>
<path d="M847.536 167.995V221.269H833.832V122.076H847.536V163.622C847.536 128.835 880.901 118.896 898.974 118.896C914.068 118.896 946.241 123.269 946.241 163.224V221.269H932.538V167.995C932.538 142.948 917.841 132.015 896.194 132.015C873.95 132.015 847.536 141.954 847.536 167.995Z" fill="white"/>
<path d="M762.35 223.858C728.588 223.858 707.337 205.371 707.337 171.578C707.337 135.996 726.999 118.702 761.556 118.702C796.311 118.702 817.164 136.99 817.164 171.777V177.343H721.835C721.835 198.414 736.731 211.136 762.35 211.136C785.189 211.136 798.297 203.185 802.269 187.878H815.576C810.809 213.323 791.942 223.858 762.35 223.858ZM721.637 166.012H802.865C802.865 144.544 785.785 131.623 761.754 131.623C738.319 131.623 721.637 141.165 721.637 166.012Z" fill="white"/>
<path d="M580.444 171.973C580.444 138.975 604.078 120.29 636.053 120.29C662.467 120.29 691.662 131.819 692.059 162.034H677.958C674.979 139.77 655.119 133.608 638.238 133.608C606.064 133.608 594.347 151.498 594.347 171.973C594.347 192.448 605.071 210.735 637.642 210.735C654.324 210.735 674.383 204.573 677.958 182.508H692.059C691.463 213.32 661.673 224.054 637.046 224.054C603.482 224.054 580.444 206.163 580.444 171.973Z" fill="white"/>
<path d="M465.126 167.995V221.269H451.422V122.076H465.126V163.622C465.126 128.835 498.491 118.896 516.564 118.896C531.658 118.896 563.831 123.269 563.831 163.224V221.269H550.128V167.995C550.128 142.948 535.431 132.015 513.783 132.015C491.54 132.015 465.126 141.954 465.126 167.995Z" fill="white"/>
<path d="M420.932 221.274V82.1267H434.635V221.274H420.932Z" fill="white"/>
<path d="M168.513 81.0845C164.699 74.6061 169.37 66.4359 176.888 66.4359H299.702C303.145 66.4359 306.33 68.257 308.077 71.2234L333.968 115.198C337.782 121.676 333.111 129.846 325.593 129.846H202.779C199.336 129.846 196.151 128.025 194.404 125.059L168.513 81.0845Z" fill="white"/>
<path d="M146.694 6.4258C143.575 -0.414443 134.203 -1.27459 129.891 4.88363L59.4471 105.485C57.4725 108.305 57.1372 111.959 58.5654 115.091L79.7375 161.522C82.8566 168.362 92.2285 169.222 96.5407 163.064L166.984 62.4624C168.959 59.6426 169.294 55.9886 167.866 52.8565L146.694 6.4258Z" fill="white"/>
<path d="M166.813 222.187C170.628 228.665 165.957 236.835 158.439 236.835L35.6241 236.835C32.1816 236.835 28.996 235.014 27.2495 232.048L1.35845 188.074C-2.45585 181.595 2.21509 173.425 9.73308 173.425H132.548C135.99 173.425 139.176 175.246 140.922 178.213L166.813 222.187Z" fill="white"/>
<path d="M188.632 296.845C191.752 303.686 201.124 304.546 205.436 298.388L275.879 197.786C277.854 194.967 278.189 191.313 276.761 188.18L255.589 141.75C252.47 134.91 243.098 134.049 238.786 140.208L168.342 240.809C166.368 243.629 166.032 247.283 167.46 250.415L188.632 296.845Z" fill="white"/>
</svg>
