<svg width="1210" height="303" viewBox="0 0 1210 303" fill="none" xmlns="http://www.w3.org/2000/svg">
<path d="M1166.72 221.172H1137.32L1095.22 121.781H1110.12L1152.02 220.974H1152.22L1194.52 121.781H1209.22L1166.72 221.172Z" fill="#EBEDFD"/>
<path d="M1069.02 98.925C1063.66 98.925 1059.29 94.7506 1059.29 89.1847C1059.29 83.6188 1063.66 79.4443 1069.02 79.4443C1074.39 79.4443 1078.56 83.8176 1078.56 89.1847C1078.56 94.5518 1074.59 98.925 1069.02 98.925ZM1062.27 221.176V121.984H1076.17V221.176H1062.27Z" fill="#EBEDFD"/>
<path d="M997.411 105.686C997.411 119.203 1003.37 121.787 1019.06 121.787H1042.69V134.509H997.61V187.385C997.61 198.318 1001.78 207.86 1014.29 207.86H1042.69V221.178H1012.11C993.638 221.178 983.906 208.655 983.906 188.777V134.509H962.854V121.787H1006.94C989.666 121.787 983.708 115.227 983.708 102.903V82.0305H997.411V105.686Z" fill="#EBEDFD"/>
<path d="M847.536 167.899V221.172H833.832V121.98H847.536V163.525C847.536 128.739 880.901 118.799 898.974 118.799C914.068 118.799 946.241 123.173 946.241 163.128V221.172H932.538V167.899C932.538 142.852 917.841 131.919 896.194 131.919C873.95 131.919 847.536 141.858 847.536 167.899Z" fill="#EBEDFD"/>
<path d="M762.35 223.762C728.588 223.762 707.337 205.275 707.337 171.482C707.337 135.9 726.999 118.606 761.556 118.606C796.311 118.606 817.164 136.894 817.164 171.681V177.247H721.835C721.835 198.318 736.731 211.04 762.35 211.04C785.189 211.04 798.297 203.088 802.269 187.782H815.576C810.809 213.226 791.942 223.762 762.35 223.762ZM721.637 165.916H802.865C802.865 144.448 785.785 131.527 761.754 131.527C738.319 131.527 721.637 141.068 721.637 165.916Z" fill="#EBEDFD"/>
<path d="M580.444 171.877C580.444 138.879 604.078 120.193 636.053 120.193C662.467 120.193 691.662 131.723 692.059 161.938H677.958C674.979 139.674 655.119 133.512 638.238 133.512C606.064 133.512 594.347 151.402 594.347 171.877C594.347 192.351 605.071 210.639 637.642 210.639C654.324 210.639 674.383 204.477 677.958 182.412H692.059C691.463 213.223 661.673 223.958 637.046 223.958C603.482 223.958 580.444 206.067 580.444 171.877Z" fill="#EBEDFD"/>
<path d="M465.126 167.899V221.172H451.422V121.98H465.126V163.525C465.126 128.739 498.491 118.799 516.564 118.799C531.658 118.799 563.831 123.173 563.831 163.128V221.172H550.128V167.899C550.128 142.852 535.431 131.919 513.783 131.919C491.54 131.919 465.126 141.858 465.126 167.899Z" fill="#EBEDFD"/>
<path d="M420.932 221.178V82.0305H434.635V221.178H420.932Z" fill="#EBEDFD"/>
<path d="M168.513 80.9883C164.699 74.5099 169.37 66.3397 176.888 66.3397H299.702C303.145 66.3397 306.33 68.1608 308.077 71.1272L333.968 115.101C337.782 121.58 333.111 129.75 325.593 129.75H202.779C199.336 129.75 196.151 127.929 194.404 124.963L168.513 80.9883Z" fill="#EBEDFD"/>
<path d="M146.694 6.32961C143.575 -0.510634 134.203 -1.37078 129.891 4.78744L59.4471 105.389C57.4725 108.209 57.1372 111.862 58.5654 114.995L79.7375 161.425C82.8566 168.266 92.2285 169.126 96.5407 162.967L166.984 62.3663C168.959 59.5464 169.294 55.8924 167.866 52.7603L146.694 6.32961Z" fill="#EBEDFD"/>
<path d="M166.813 222.091C170.628 228.569 165.957 236.739 158.439 236.739L35.6241 236.739C32.1816 236.739 28.996 234.918 27.2495 231.952L1.35845 187.977C-2.45585 181.499 2.21509 173.329 9.73308 173.329H132.548C135.99 173.329 139.176 175.15 140.922 178.116L166.813 222.091Z" fill="#EBEDFD"/>
<path d="M188.632 296.749C191.752 303.59 201.124 304.45 205.436 298.291L275.879 197.69C277.854 194.87 278.189 191.216 276.761 188.084L255.589 141.654C252.47 134.813 243.098 133.953 238.786 140.111L168.342 240.713C166.368 243.532 166.032 247.186 167.46 250.319L188.632 296.749Z" fill="#EBEDFD"/>
</svg>
